<svg xmlns="http://www.w3.org/2000/svg" xmlns:xlink="http://www.w3.org/1999/xlink" version="1.1" x="0px" y="0px" viewBox="0.5 100.5 100 100" enable-background="new 0.5 100.5 100 100" xml:space="preserve"><path d="M80.5,105.5l-37.009,14.173c0,0-11.464,27.347-11.53,27.72l-21.345,23.182l19.457,17.929H10.566v7h69.872v-7H45.503  l29.762-32.335l-8.471-7.804l6.342-3.367l7.409-9.498l9.954-5v-25H80.5z M34.5,188.504l-19.646-18.103l17.892-19.431l14.893-16.174  l3.672,3.383l6.573,6.055l-9.88,6.198c-2.03,1.085-2.803,3.608-1.728,5.634c1.092,2.045,3.604,2.809,5.642,1.729l0.721-0.492  l9.569-6.502l1.778-0.944l7.041,6.486l-29.602,32.161H34.5z"></path></svg>