<?xml version="1.0" standalone="no"?>
<!DOCTYPE svg PUBLIC "-//W3C//DTD SVG 20010904//EN"
 "http://www.w3.org/TR/2001/REC-SVG-20010904/DTD/svg10.dtd">
<svg version="1.0" xmlns="http://www.w3.org/2000/svg"
 width="300.000000pt" height="300.000000pt" viewBox="0 0 300.000000 300.000000"
 preserveAspectRatio="xMidYMid meet">
<metadata>
Created by potrace 1.11, written by Peter Selinger 2001-2013
</metadata>
<g transform="translate(0.000000,300.000000) scale(0.100000,-0.100000)"
fill="#000000" stroke="none">
<path d="M2450 2931 c-30 -10 -138 -51 -240 -90 -102 -40 -255 -99 -340 -131
-85 -32 -227 -86 -315 -120 -88 -34 -186 -72 -219 -84 -48 -19 -61 -29 -73
-57 -8 -19 -84 -200 -169 -404 -85 -203 -165 -393 -177 -422 -17 -41 -95 -131
-360 -418 -186 -201 -340 -371 -343 -378 -2 -7 128 -135 305 -297 l310 -285
-315 -3 -314 -2 0 -115 0 -115 1140 0 1140 0 0 115 0 115 -565 2 -565 3 396
430 c218 237 435 472 482 523 l86 94 -94 86 c-52 48 -115 105 -139 128 l-44
41 103 54 102 54 122 155 121 155 163 83 162 82 0 409 0 409 -152 1 c-122 0
-164 -4 -208 -18z m-710 -1250 c-1 -3 -77 -53 -171 -111 -94 -58 -180 -118
-192 -134 -28 -40 -29 -115 -1 -153 29 -40 87 -67 128 -59 18 4 113 61 212
127 98 67 190 127 204 134 25 13 30 9 140 -94 l114 -107 -479 -522 -480 -521
-120 0 -120 0 -313 289 c-171 160 -313 293 -313 296 -1 4 238 267 530 585
l533 578 164 -151 c90 -84 164 -154 164 -157z"/>
</g>
</svg>
